<?xml version="1.0" encoding="utf-8"?>
<!-- Generator: Adobe Illustrator 16.0.0, SVG Export Plug-In . SVG Version: 6.00 Build 0)  -->
<!DOCTYPE svg PUBLIC "-//W3C//DTD SVG 1.0//EN" "http://www.w3.org/TR/2001/REC-SVG-20010904/DTD/svg10.dtd">
<svg version="1.0" id="Layer_1" xmlns="http://www.w3.org/2000/svg" xmlns:xlink="http://www.w3.org/1999/xlink" x="0px" y="0px"
	 width="800px" height="800px" viewBox="0 0 800 800" enable-background="new 0 0 800 800" xml:space="preserve">
<g>
	<path fill-rule="evenodd" clip-rule="evenodd" d="M109.228,326.467c9.754,0,17.785,0,26.399,0c0,48.507,0,96.699,0,145.596
		c-7.6,0-15.244,0-23.602,0c-0.206-3.631-0.412-7.295-0.703-12.432c-11.26,12.021-24.274,17.566-39.658,16.505
		c-15.473-1.069-28.02-8.021-37.775-19.979c-18.909-23.181-17.809-57.996,2.429-79.321c20.063-21.141,47.185-23.094,72.91-4.303
		C109.228,356.85,109.228,341.97,109.228,326.467z M111.184,417.751c0.055-17.831-14.431-32.396-32.271-32.444
		c-17.059-0.048-31.835,14.908-31.767,32.149c0.072,18.247,14.205,32.796,31.858,32.792
		C96.794,450.246,111.127,435.771,111.184,417.751z"/>
	<path fill-rule="evenodd" clip-rule="evenodd" d="M252.667,440.826c-3.173,5.357-5.056,9.436-7.73,12.905
		c-16.891,21.919-47.817,28.741-72.333,16.153c-25.283-12.979-37.191-42.006-28.568-69.635
		c8.332-26.693,34.909-44.118,62.001-40.646c27.206,3.487,48.244,26.515,50,54.731c0.016,0.252,0.036,0.504,0.046,0.756
		c0.585,13.811-0.097,14.54-13.604,14.54c-21.232,0-42.463-0.003-63.694-0.006c-2.675,0-5.35,0-8.279,0
		c3.35,12.284,13.917,20.636,26.666,20.403c6.125-0.109,12.31-2.197,18.27-4.028c3.014-0.927,5.496-3.47,8.41-4.893
		c1.248-0.61,2.982-0.27,4.496-0.274C235.823,440.816,243.3,440.826,252.667,440.826z M227.733,405.464
		c-2.996-12.262-15.722-20.761-29.518-20.152c-13.441,0.593-25.738,9.53-27.562,20.152
		C189.658,405.464,208.635,405.464,227.733,405.464z"/>
	<path fill-rule="evenodd" clip-rule="evenodd" d="M695.896,440.646c-2.506,4.706-3.92,8.145-5.992,11.123
		c-15.809,22.727-47.096,30.823-72.281,18.841c-25.928-12.337-38.658-41.468-30.359-69.474
		c8.039-27.133,34.689-44.956,62.113-41.547c27.42,3.41,49.031,27.225,50.223,55.354c0.043,1.01,0.049,2.023,0.014,3.033
		c-0.426,11.648-0.428,11.652-11.963,11.652c-21.738,0.002-43.479,0-65.217,0c-2.699,0-5.4,0-8.297,0
		c2.977,12.469,14.449,21.042,27.842,20.441c5.65-0.252,12.344-0.979,16.602-4.137C670,437.468,682.26,442.201,695.896,440.646z
		 M613.387,405.271c19.846,0,39.012,0,58.461,0c-5.043-12.794-15.986-20.093-29.146-19.975
		C629.701,385.415,618.25,393.011,613.387,405.271z"/>
	<path fill-rule="evenodd" clip-rule="evenodd" d="M475.741,417.762c0.104,32.353-25.72,58.318-58.15,58.473
		c-32.101,0.15-58.647-26.05-58.827-58.061c-0.182-32.326,26.194-58.682,58.893-58.85
		C449.893,359.161,475.638,385.062,475.741,417.762z M385.643,417.705c-0.076,18.26,13.93,32.623,31.735,32.547
		c17.845-0.076,31.516-13.698,31.813-31.699c0.298-17.926-13.861-32.934-31.361-33.241
		C400.607,385.006,385.715,399.995,385.643,417.705z"/>
	<path fill-rule="evenodd" clip-rule="evenodd" d="M578.34,472.738c-8.33,0-15.406,0.378-22.381-0.281
		c-1.625-0.154-4.121-3.811-4.166-5.902c-0.373-16.928-0.086-33.87-0.389-50.802c-0.098-5.5-0.729-11.152-2.215-16.426
		c-2.352-8.358-10.135-13.711-18.762-14.007c-8.782-0.303-17.68,4.833-20.313,13.009c-1.824,5.657-2.66,11.838-2.77,17.806
		c-0.341,18.427-0.125,36.863-0.125,55.963c-8.875,0-17.273,0-26.23,0c0-36.129,0-72.117,0-108.662c7.924,0,15.592,0,23.564,0
		c0.415,2.396,0.789,4.567,1.257,7.271c3.526-2.363,6.616-4.863,10.065-6.674c25.217-13.234,56.921,2.274,60.875,30.497
		c1.848,13.175,1.299,26.709,1.539,40.085C578.514,446.945,578.34,459.282,578.34,472.738z"/>
	<path fill-rule="evenodd" clip-rule="evenodd" d="M775.785,393.057c-7.715,0-15.004,0.234-22.258-0.172
		c-1.748-0.098-3.211-2.8-5.104-3.465c-3.988-1.404-8.303-3.364-12.225-2.899c-2.254,0.265-6.082,5.435-5.527,7.322
		c1.014,3.462,4.18,7.302,7.463,8.878c6.551,3.146,13.99,4.386,20.699,7.265c20.875,8.962,27.15,31.233,13.609,49.435
		c-10.064,13.53-24.248,18.857-40.803,16.083c-16.209-2.714-26.744-12.37-30.963-28.482c-0.445-1.701-0.695-3.47-0.869-5.225
		c-0.096-0.958,0.154-1.952,0.328-3.759c7.883,0,15.67-0.23,23.424,0.194c1.564,0.086,2.873,2.821,4.516,4.05
		c3.672,2.74,7.158,6.604,11.305,7.604c5.338,1.287,10.707-0.994,12.496-7.185c1.693-5.85-1.256-9.974-6.359-12.223
		c-5.992-2.639-12.26-4.659-18.426-6.905c-17.984-6.543-26.68-20.786-22.863-37.496c3.814-16.707,20.541-28.111,39.117-26.673
		C760.834,360.758,774.979,374.853,775.785,393.057z"/>
	<path fill-rule="evenodd" clip-rule="evenodd" d="M323.722,472.768c0-29.126,0-57.287,0-85.867
		c-4.553-0.25-8.229-0.453-12.318-0.679c0-7.698,0-14.917,0-22.787c3.745-0.328,7.428-0.648,12.117-1.058
		c0-11.765,0-23.501,0-35.714c9.214,0,17.419,0,26.712,0c0,11.746,0,23.471,0,35.691c5.699,0.358,10.382,0.652,15.509,0.976
		c0,7.602,0,14.812,0,22.868c-4.711,0-9.371,0-14.859,0c-0.172,3.455-0.416,6.118-0.418,8.784
		c-0.028,23.515-0.174,47.03,0.106,70.54c0.066,5.582-1.435,7.771-7.223,7.35C337.131,472.417,330.856,472.768,323.722,472.768z"/>
	<path fill-rule="evenodd" clip-rule="evenodd" d="M290.414,472.383c-9.472,0-17.484,0-26.61,0c0-28.412,0-56.799,0-85.285
		c-3.562-0.378-6.04-0.639-9.125-0.965c0-7.266,0-14.465,0-22.374c2.503-0.489,5.358-1.048,8.119-1.588
		c7.778-30.466,21.582-42.408,43.499-37.287c0,8.101,0,16.315,0,24.914c-7.732,0.834-16.027,0.979-15.623,12.627
		c4.706,0.295,9.371,0.59,14.3,0.898c0,7.808,0,15.028,0,22.874c-4.8,0.217-9.253,0.419-14.561,0.657
		C290.414,415.162,290.414,443.355,290.414,472.383z"/>
</g>
</svg>
